<svg width="15" height="15" viewBox="0 0 7 9" fill="none" xmlns="http://www.w3.org/2000/svg">
<path d="M6.24526 2.64724C6.47312 2.42751 6.47312 2.07068 6.24526 1.85095C6.01739 1.63123 5.64734 1.63123 5.41947 1.85095L3.49994 3.70369L1.57859 1.85271C1.35072 1.63298 0.980672 1.63298 0.752808 1.85271C0.524943 2.07244 0.524943 2.42927 0.752808 2.649L2.67416 4.49998L0.754631 6.35271C0.526766 6.57244 0.526766 6.92927 0.754631 7.149C0.982495 7.36873 1.35255 7.36873 1.58041 7.149L3.49994 5.29626L5.4213 7.14724C5.64916 7.36697 6.01921 7.36697 6.24708 7.14724C6.47494 6.92751 6.47494 6.57068 6.24708 6.35095L4.32572 4.49998L6.24526 2.64724Z" fill="#204660"/>
</svg>
