<svg width="17" height="14" viewBox="0 0 17 14" fill="none" xmlns="http://www.w3.org/2000/svg">
<path d="M10.164 1.94225C10.164 1.4104 9.61504 0.980713 8.9356 0.980713C8.25617 0.980713 7.70725 1.4104 7.70725 1.94225V6.26918H2.17965C1.50022 6.26918 0.951294 6.69886 0.951294 7.23071C0.951294 7.76256 1.50022 8.19225 2.17965 8.19225H7.70725V12.5192C7.70725 13.051 8.25617 13.4807 8.9356 13.4807C9.61504 13.4807 10.164 13.051 10.164 12.5192V8.19225H15.6916C16.371 8.19225 16.9199 7.76256 16.9199 7.23071C16.9199 6.69886 16.371 6.26918 15.6916 6.26918H10.164V1.94225Z" fill="white"/>
</svg>

