<svg width="20" height="20" viewBox="0 0 20 20" fill="none" xmlns="http://www.w3.org/2000/svg">
<g clip-path="url(#clip0_61_172)">
<path d="M6.03571 0.691406C6.27679 0.265625 6.77232 0 7.3125 0H12.6875C13.2277 0 13.7232 0.265625 13.9643 0.691406L14.2857 1.25H18.5714C19.3616 1.25 20 1.80859 20 2.5C20 3.19141 19.3616 3.75 18.5714 3.75H1.42857C0.638393 3.75 0 3.19141 0 2.5C0 1.80859 0.638393 1.25 1.42857 1.25H5.71429L6.03571 0.691406ZM1.42857 5H18.5714V17.5C18.5714 18.8789 17.2902 20 15.7143 20H4.28571C2.70982 20 1.42857 18.8789 1.42857 17.5V5ZM5.71429 7.5C5.32143 7.5 5 7.78125 5 8.125V16.875C5 17.2188 5.32143 17.5 5.71429 17.5C6.10714 17.5 6.42857 17.2188 6.42857 16.875V8.125C6.42857 7.78125 6.10714 7.5 5.71429 7.5ZM10 7.5C9.60714 7.5 9.28571 7.78125 9.28571 8.125V16.875C9.28571 17.2188 9.60714 17.5 10 17.5C10.3929 17.5 10.7143 17.2188 10.7143 16.875V8.125C10.7143 7.78125 10.3929 7.5 10 7.5ZM14.2857 7.5C13.8929 7.5 13.5714 7.78125 13.5714 8.125V16.875C13.5714 17.2188 13.8929 17.5 14.2857 17.5C14.6786 17.5 15 17.2188 15 16.875V8.125C15 7.78125 14.6786 7.5 14.2857 7.5Z" fill="white"/>
</g>
<defs>
<clipPath id="clip0_61_172">
<rect width="20" height="20" fill="white"/>
</clipPath>
</defs>
</svg>

